<?xml version="1.0" encoding="utf-8"?>
<!-- Generator: Adobe Illustrator 24.0.2, SVG Export Plug-In . SVG Version: 6.00 Build 0)  -->
<svg version="1.1" id="Livello_1" xmlns="http://www.w3.org/2000/svg" xmlns:xlink="http://www.w3.org/1999/xlink" x="0px" y="0px"
	 viewBox="0 0 525 544.6" style="enable-background:new 0 0 525 544.6;" xml:space="preserve">
<style type="text/css">
	.st0{fill:#F2F2F2;}
	.st1{fill:#202942;}
	.st2{fill:#FFB8B8;}
	.st3{fill:#3056D4;}
	.st4{fill:#FFB6B6;}
	.st5{fill:#E6E6E6;}
	.st6{fill:#FFFFFF;}
	.st7{fill:#CCCCCC;}
	.st8{fill:#FD6584;}
</style>
<path class="st0" d="M15.8,517.3c2,0.1,3.6-1.5,3.7-3.4c0-1.1-0.4-2.1-1.2-2.8c-0.1-0.4-0.2-0.6-0.3-1c1.9-4.9,7.4-7.4,12.4-5.5
	c2.4,0.9,4.4,2.8,5.4,5.2c4.3,9.8,9.9,20,7.3,30.9c17.6-38.2,11-85.5-15.8-117.8c-7.4-4-13.4-11.1-15-19.4c3.6,1.2,8.1-1.8,5.4-5.6
	c-1.2-1.5-2.4-2.9-3.6-4.3c13.7-14.8,30.3,8.1,15.3,28.1c5,6.2,9.4,12.9,13,20c-0.9-7.6,0-15.2,2.7-22.3c2.7-6.6,7.8-12.3,12.3-18
	c5.4-7,16.8-3.9,17.6,4.9c-5.1,1.7-5.7,9.1,0.2,10c-1.4,16.5-12,31.7-26.7,39.1c5.6,15.3,7.9,31.6,6.7,47.9
	c2.4-19,22.8-23.8,36.9-31.5c2.6-1.7,6-1,7.7,1.6c0.8,1.2,1.1,2.6,0.8,3.9c-2,0.8-3.8,1.8-5.6,3c-2.2,1.5-2.8,4.5-1.3,6.7
	c0.8,1.2,2.1,2,3.6,2.1c-7,17.8-25.5,29.9-44.5,30.1c-1.8,8-4.3,15.8-7.7,23.2l-28.3,0.3c-0.1-0.3-0.2-0.6-0.3-1
	c2.6,0.1,5.2,0,7.8-0.5C17.2,532.9,11.8,528.7,15.8,517.3L15.8,517.3z"/>
<g>
	<path class="st1" d="M367.9,54.1c-8.7,15.1,7.7,40.4-8.9,45.7l1.4-1.4c10-12.3-10.9-38.4-0.9-50.7c1.6-1.8,2.9-3.8,4-5.9"/>
	<path class="st2" d="M449.8,275.1c1.1-5.7-2.7-11.2-8.3-12.3c-0.6-0.1-1.2-0.2-1.8-0.2L418,199.8l-12,15.2l22.9,58.7
		c0.3,5.8,5.3,10.3,11.1,10C444.8,283.4,448.9,279.9,449.8,275.1L449.8,275.1z"/>
	<path class="st3" d="M354.8,123.5c0,0-0.7-22.7,19.7-9.7s64.6,135,64.6,135l-22,11.9L367,149L354.8,123.5z"/>
	<polygon class="st4" points="414.7,513 404.6,517.4 383,480.3 398,473.9 	"/>
	<path class="st1" d="M427.6,528.3l-7.3,3.1l-4.2-6.3l-0.4,8.3l-19.3,8.2c-2.4,1-5.2-0.1-6.2-2.5c-0.6-1.4-0.5-3.1,0.3-4.4
		l10.9-17.2l-3-6.9l16.6-6L427.6,528.3z"/>
	<polygon class="st4" points="255.6,525.6 244.6,525.1 241.4,482.3 257.7,483.1 	"/>
	<path class="st1" d="M260.5,545l-7.9-0.4l-1-7.5l-4,7.3l-21-1c-2.6-0.1-4.6-2.3-4.5-4.9c0.1-1.5,0.9-3,2.2-3.8l17.3-10.7l0.4-7.5
		l17.6,1.9L260.5,545z"/>
	<path class="st1" d="M283.5,247.5c0,0-22.4,61.1-22.8,67.9s-6.8,93.3-12.1,98.3s-21.8,82.9-9,89s53-4,53-4l14-92l4.8-70.5
		c0,0,14.5,166,40.7,165.5s58.3-10.5,58.3-10.5l-36.8-100.5c0,0,0.5-119-8-143S283.5,247.5,283.5,247.5z"/>
	<path class="st3" d="M350,90.1l-30,2.8l-4.8,14.8c0,0-25.1,13.8-19.6,20.1c5.6,6.3-1.2,48.5-1.2,48.5l1.5,34.3
		c0,0-1.7,23.8-6.6,29.2s-17.9,18.9-8.7,12.5c32-22.5,88-3.5,88-3.5l-8-49c0,0,18.2-80.2,11-87s-13.9-7.6-13.9-7.6L350,90.1z"/>
	<path class="st2" d="M192.2,245.6c5.7-1.1,9.5-6.5,8.4-12.2c-0.1-0.6-0.3-1.2-0.5-1.8l50.6-43l-18.6-5.6l-46.4,42.6
		c-5.3,2.4-7.6,8.7-5.2,14C182.7,244,187.4,246.5,192.2,245.6z"/>
	<path class="st3" d="M320.8,133.2c0,0,10-20.4-13.9-16.9s-114.5,96.4-114.5,96.4l15.2,19.9l91.5-81.1L320.8,133.2z"/>
	<path class="st5" d="M281.9,98.5l-94.7,121.3c-3.4,4.4-2.6,10.7,1.7,14.1c22,53.4,87.8,93,165.2,128.9c4.4,3.4,10.7,2.6,14.1-1.7
		L463,239.8c3.4-4.4,2.6-10.7-1.7-14.1c-65-36.7-120.8-79.2-165.2-128.9C291.7,93.4,285.4,94.1,281.9,98.5z"/>
	<path class="st6" d="M456.4,237.1L427.5,274c-36.7,46.7-104.1,55-151,18.6l-80.8-63.1c-2.5-1.9-2.9-5.5-1-8l91.5-117.2
		c2-2.5,5.5-2.9,8-1c40.9,52.8,95.6,93.8,161.1,125.7C457.8,231,458.3,234.6,456.4,237.1z"/>
	<path class="st7" d="M280.1,164.8l-18.8,24.1c-1,1.3-3,1.6-4.3,0.5c-1.3-1-1.6-2.9-0.5-4.3l18.8-24.1c1-1.3,3-1.6,4.3-0.5
		C280.9,161.5,281.1,163.4,280.1,164.8C280.1,164.7,280.1,164.7,280.1,164.8L280.1,164.8z"/>
	<path class="st7" d="M315.3,146.9L274,199.7c-1,1.3-3,1.6-4.3,0.5c-1.3-1-1.6-3-0.5-4.3l0,0l41.2-52.8c1-1.3,3-1.6,4.3-0.5
		C316.1,143.7,316.3,145.6,315.3,146.9C315.3,146.9,315.3,146.9,315.3,146.9z"/>
	<circle class="st3" cx="245" cy="214.9" r="20.1"/>
	<path class="st7" d="M317.5,188.7l-50.6,64.9c-1.2,1.2-3.1,1.2-4.3,0c-1-1-1.2-2.6-0.5-3.8l50.6-64.9c1.2-1.2,3.1-1.2,4.3,0
		C318,185.9,318.2,187.4,317.5,188.7z"/>
	<path class="st7" d="M350.3,173.8l-70.7,90.5c-1.2,1.2-3.1,1.2-4.3,0c-1-1-1.2-2.6-0.5-3.8l70.7-90.5c1.2-1.2,3.1-1.2,4.3,0
		C350.9,171.1,351.1,172.6,350.3,173.8L350.3,173.8z"/>
	<path class="st7" d="M350.1,214.1L299.4,279c-1.2,1.2-3.1,1.2-4.3,0c-1-1-1.2-2.6-0.5-3.8l50.6-64.9c1.2-1.2,3.1-1.2,4.3,0
		C350.6,211.3,350.8,212.9,350.1,214.1L350.1,214.1z"/>
	<path class="st3" d="M417.1,222.1L366.4,287c-1.2,1.2-3.1,1.2-4.3,0c-1-1-1.2-2.6-0.5-3.8l50.6-64.9c1.2-1.2,3.1-1.2,4.3,0
		C417.6,219.3,417.8,220.9,417.1,222.1L417.1,222.1z"/>
	<path class="st7" d="M382.9,199.3l-70.7,90.5c-1.2,1.2-3.1,1.2-4.3,0c-1-1-1.2-2.6-0.5-3.8l70.7-90.5c1.2-1.2,3.1-1.2,4.3,0
		C383.5,196.5,383.7,198.1,382.9,199.3z"/>
	<path class="st1" d="M299.7,51.8c0,16.5,13.3,29.8,29.8,29.8s29.8-13.3,29.8-29.8c0-7.7-3-15.1-8.4-20.7l-0.1-0.1
		c-0.2-0.3-0.5-0.5-0.7-0.7c0,0,0,0,0,0c0,0,0,0,0,0c-0.3-0.3-0.6-0.6-0.9-0.8c-12.4-10.9-31.2-9.6-42.1,2.8
		C302.3,37.6,299.7,44.6,299.7,51.8L299.7,51.8z"/>
	<circle class="st2" cx="336.8" cy="58.7" r="25"/>
	<path class="st1" d="M310.2,65.4c-2.4-11,1.1-23.4,8.8-30.7c7.9-7.4,19.4-9.6,29.4-5.7c0.6,0.3,1.3,0.5,1.9,0.8l0.3,0.1v0
		c0.1,0,0.1,0.1,0.2,0.1c0.1,0.1,0.3,0.2,0.4,0.2c4.4-0.1,8.6,1.6,11.6,4.8c3.9,4.2,5.7,11,5.1,19.1l0,0.3l-0.2,0.1
		c-2.9,1.9-6,3.5-9.1,5c-11,5.2-21,6.1-30.6,2.9l-0.2-0.1l-4-6.8c-0.8,4.7-0.4,20.2-5.1,21l-8.3-11L310.2,65.4z"/>
	<path class="st1" d="M257.5,87.1c8.5-4.4-2.4-20.3-0.2-29.7c2.2-9.3,18-12.3,19-21.8s3.4-19.3,9.7-26.6c4-4.6,9.9-8,16-7.4
		c7.9,0.8,13.7,7.8,13,15.7c-0.1,0.7-0.2,1.4-0.4,2.1c1.7-2.5,6.2-1.9,7.3,0.9c1,2.5-1.2,5.5-3.8,5.7c-3.4,4.1-7.2,8.6-12.5,9.4
		c-1.7,0.4-3.5,0-4.8-1.1c-1.2-1.2-1.3-3.6,0.1-4.5c-6.6,2.6-10.5,9.8-11.5,16.8c-1,7.1,0.4,14.2,1.3,21.2s1.3,14.5-1.5,21.1
		c-3.3,7.7-10.8,13.3-19,15.1s-17,0-24.4-3.9c-7.4-3.9-13.6-9.9-18.7-16.6C235.9,89.7,248,92,257.5,87.1z"/>
	<path class="st1" d="M324.9,57.1c-8.7,15.1,7.7,40.4-8.9,45.7l1.4-1.4c10-12.3-10.9-38.4-0.9-50.7c1.6-1.8,2.9-3.8,4-5.9"/>
	<path class="st8" d="M311.3,65.1c0,0,7.4-27.7,39.2-34c0,0,0.2-0.1,0.3-0.1c0.1-0.1,0.2-0.1,0.3-0.2c-0.4-0.2-0.7-0.4-1.1-0.6
		c0,0,0,0,0,0c0,0,0,0,0,0c-0.3-0.3-0.6-0.6-0.9-0.8l-0.9,0C348.2,29.4,316.4,24.4,311.3,65.1z"/>
</g>
<path class="st7" d="M12.2,545c0,0.4,0.3,0.7,0.7,0.8c0,0,0,0,0,0h451.4c0.4,0,0.8-0.3,0.8-0.8c0-0.4-0.3-0.8-0.8-0.8H13
	C12.6,544.3,12.2,544.6,12.2,545C12.2,545,12.2,545,12.2,545z"/>
</svg>
