<?xml version="1.0" encoding="utf-8"?>
<!-- Generator: Adobe Illustrator 24.0.2, SVG Export Plug-In . SVG Version: 6.00 Build 0)  -->
<svg version="1.1" xmlns="http://www.w3.org/2000/svg" xmlns:xlink="http://www.w3.org/1999/xlink" x="0px" y="0px"
	 viewBox="0 0 599.8 353.4" style="enable-background:new 0 0 599.8 353.4;" xml:space="preserve">
<style type="text/css">
	.st0{fill:url(#SVGID_1_);stroke:#a5a0ac;stroke-width:0.25;stroke-miterlimit:10;}
	.st1{fill:#a5a0ac;stroke:#a5a0ac;stroke-width:3;stroke-miterlimit:10;}
	.st2{fill:#a5a0ac;stroke:#a5a0ac;stroke-width:4;stroke-miterlimit:10;}
	.st3{fill:#a5a0ac;stroke:#a5a0ac;stroke-miterlimit:10;}
	.st4{fill:none;stroke:#a5a0ac;stroke-width:12;stroke-miterlimit:10;}
	.st5{fill:none;stroke:#a5a0ac;stroke-width:6;stroke-miterlimit:10;}
	.st6{fill:none;stroke:#FFFFFF;stroke-width:31;stroke-miterlimit:10;}
	.st7{fill:none;stroke:#a5a0ac;stroke-width:24;stroke-miterlimit:10;}
	.st8{fill:#a5a0ac;stroke:#a5a0ac;stroke-width:6;stroke-miterlimit:10;}
	.st9{fill:none;stroke:#a5a0ac;stroke-width:40;stroke-miterlimit:10;}
</style>
<g id="fiala_xA0_Immagine_1_">
	<g>
		<linearGradient id="SVGID_1_" gradientUnits="userSpaceOnUse" x1="252.1851" y1="293.6869" x2="252.1851" y2="191.9823">
			<stop  offset="0" style="stop-color:#a5a0ac"/>
			<stop  offset="1" style="stop-color:#a5a0ac"/>
		</linearGradient>
		<path class="st0" d="M220.7,216.7c7.6,39.2-3,50.1,8.1,65.3c5.5,7.5,15.5,13.3,23.7,11.3c8.6-2,13.1-3.2,16.7-5.7
			c3.3-2.3,5.1-4.9,6-6.1c8.7-11.9,9.1-32.8,10.5-61.7c0.7-13.6,1.2-22.7-2-23.7c-4.2-1.4-8.8,14.4-18,12.8c-12-2.1-9.2-8.9-21.8-14
			c-6.8-2.9-18.1-5-23.1,0C216.4,199.3,218.8,206.9,220.7,216.7z"/>
		<circle class="st1" cx="220.4" cy="12.3" r="8.3"/>
		<circle class="st2" cx="357.1" cy="79.6" r="16.4"/>
		<circle class="st2" cx="320" cy="120.2" r="11.4"/>
		<circle class="st2" cx="320" cy="53.7" r="11.4"/>
		<circle class="st2" cx="244.1" cy="42" r="11.4"/>
		<circle class="st2" cx="202.8" cy="43.1" r="8.7"/>
		<circle class="st2" cx="288.4" cy="23.7" r="16.7"/>
		<path class="st3" d="M250.6,125.3H237c-0.8,0-1.5-0.7-1.5-1.5v-6.9c0-0.8,0.7-1.5,1.5-1.5h13.6c0.8,0,1.5,0.7,1.5,1.5v6.9
			C252.1,124.6,251.5,125.3,250.6,125.3z"/>
		<path class="st3" d="M250.6,153.3H237c-0.8,0-1.5-0.7-1.5-1.5v-6.9c0-0.8,0.7-1.5,1.5-1.5h13.6c0.8,0,1.5,0.7,1.5,1.5v6.9
			C252.1,152.6,251.5,153.3,250.6,153.3z"/>
		<path class="st3" d="M250.6,181.2H237c-0.8,0-1.5-0.7-1.5-1.5v-6.9c0-0.8,0.7-1.5,1.5-1.5h13.6c0.8,0,1.5,0.7,1.5,1.5v6.9
			C252.1,180.5,251.5,181.2,250.6,181.2z"/>
		<path class="st4" d="M220.8,107.2c-1.2,0-7.3-0.1-12.2-5.1c-3.2-3.2-5.1-7.4-5.1-12.2v-0.5c0-9.5,7.7-17.3,17.3-17.3h64.2
			c9.5,0,17.3,7.7,17.3,17.3V90c0,9.5-7.7,17.3-17.3,17.3c-0.7,0-1.1,0-1.6,0"/>
		<path class="st5" d="M253.5,100.3"/>
		<path class="st4" d="M283.5,100.8v162.9c0,16.7-14,30.3-31,30.3l0,0c-17.5,0-31.8-14-31.8-31.1V100.8"/>
	</g>
</g>
<g id="Scritta">
	<path class="st6" d="M780.9,140.1"/>
	<g>
		<g>
			<circle class="st7" cx="386.7" cy="238.3" r="30"/>
			<rect x="405.2" y="238.4" class="st3" width="23" height="47.1"/>
		</g>
		<g>
			<path class="st7" d="M346.9,273.7L346.9,273.7c-18.6,0-33.8-15.2-33.8-33.8v-79.9"/>
		</g>
		<circle class="st7" cx="474.6" cy="243.8" r="30"/>
		
			<rect x="432.8" y="159.9" transform="matrix(-1 -1.224647e-16 1.224647e-16 -1 888.9181 401.5485)" class="st3" width="23.4" height="81.8"/>
		<g>
			<g>
				<path class="st8" d="M539.3,257.2c2.2,7,7.4,11.5,19.9,11.5c11.7,0,15.1-3.8,15.1-9c0-5.6-3.5-8.7-19.4-11.6
					c-26.2-4.8-31-13.9-31-24.7c0-16.1,14.5-24.3,32.4-24.3c25.9,0,32.9,14.2,33.8,23.6h-18.3c-1.1-4-3.6-9.3-16-9.3
					c-8.7,0-13.2,3-13.2,8.2c0,4.7,3.1,7,17.3,9.7c28.7,5.5,33.2,14.7,33.2,26.4c0,14-10.3,25.2-35.6,25.2
					c-23.6,0-34.3-11.2-36.5-25.8H539.3z"/>
			</g>
		</g>
	</g>
	<g>
		<g>
			<g>
				<ellipse class="st9" cx="103.4" cy="181.2" rx="80.4" ry="82.6"/>
			</g>
		</g>
		<path class="st9" d="M253.2,329.8h-8c-34,0-61.9-27.8-61.9-61.9v-83.1"/>
	</g>
</g>
</svg>
