<?xml version="1.0" encoding="utf-8"?><svg version="1.1" xmlns="http://www.w3.org/2000/svg" xmlns:xlink="http://www.w3.org/1999/xlink" x="0px" y="0px" viewBox="0 0 400 288" xml:space="preserve"><g><path fill="#758792" d="M180.4,271H36c-12.7,0-23-10.4-23-23V40c0-12.7,10.4-23,23-23h146.6c33.2,0,65.3,12.1,90.3,34 c23.7,20.8,53.3,47,74.2,66c14.9,13.5,14.9,36.9,0.1,50.4c-20.9,19.1-50.1,45.8-73.5,67.3C248.1,258.1,214.9,271,180.4,271z"/></g><g><path fill="#FFFFFF" d="M116.2,66.1l46.7,150h-28L123.5,178H69.6l-11.3,38.1h-27l46.4-150H116.2z M76.2,155.6h40.7l-9.4-32.1 c-4.1-14.6-8.6-29.5-10.3-38.9h-0.9c-1.9,9-6.4,25-10.3,38.3L76.2,155.6z"/><path fill="#FFFFFF" d="M165.3,182.5l-5.6-21.2L219,68.5h31v92h20.3v22H250v33.6h-25.5v-33.6H165.3z M225.4,95.7 c-3.2,6.2-9.2,16.9-15.8,27.4l-22.9,37.5h37.9v-24.6c0-19.7,0.6-31.7,1.7-40.2H225.4z"/></g></svg>