<?xml version="1.0" encoding="utf-8"?><svg version="1.1" id="Livello_1" xmlns="http://www.w3.org/2000/svg" xmlns:xlink="http://www.w3.org/1999/xlink" x="0px" y="0px" viewBox="0 0 400 288" style="enable-background:new 0 0 400 288;" xml:space="preserve"><g><path fill="#ED4E42" d="M180.4,271H36c-12.7,0-23-10.4-23-23V40c0-12.7,10.4-23,23-23h146.6c33.2,0,65.3,12.1,90.3,34 c23.7,20.8,53.3,47,74.2,66c14.9,13.5,14.9,36.9,0.1,50.4c-20.9,19.1-50.1,45.8-73.5,67.3C248.1,258.1,214.9,271,180.4,271z"/></g><g><path class="st5" fill="#FFFFFF" d="M110.3,216.1v-150h85.2v22.5H137v45.8h50.7v22.5H137v59.3H110.3z"/></g></svg>