<?xml version="1.0" encoding="utf-8"?><svg version="1.1" id="Livello_1" xmlns="http://www.w3.org/2000/svg" xmlns:xlink="http://www.w3.org/1999/xlink" x="0px" y="0px" viewBox="0 0 400 288" xml:space="preserve"><g><path fill="#6AC335" d="M218.4,271H34c-12.7,0-23-10.4-23-23V40c0-12.7,10.4-23,23-23h186.6c33.2,0,65.3,12.1,90.3,34 c23.7,20.8,53.3,47,74.2,66c14.9,13.5,14.9,36.9,0.1,50.4c-20.9,19.1-50.1,45.8-73.5,67.3C286.1,258.1,252.9,271,218.4,271z"/></g><g><path fill="#FFFFFF" d="M144.8,66.2l46.7,150h-28l-11.3-38.1H98.1l-11.3,38.1h-27l46.4-150L144.8,66.2L144.8,66.2z M104.8,155.6h40.7 l-9.4-32.1c-4.2-14.5-8.7-29.5-10.4-38.9h-0.9c-1.9,9-6.4,25-10.3,38.3L104.8,155.6z"/><path fill="#FFFFFF" class="st1" d="M250.4,68.5v147.7h-26.3v-76.6c0-10.3,0.3-30.9,0.9-42.2h-0.9l-15,10.3L192.8,119l-15.2-21l45.8-29.5H250.4z"/></g></svg>
