<?xml version="1.0" encoding="utf-8"?><svg version="1.1" xmlns="http://www.w3.org/2000/svg" xmlns:xlink="http://www.w3.org/1999/xlink" x="0px" y="0px" viewBox="0 0 400 288" xml:space="preserve"><g><path fill="#1E8F6E" d="M180.4,271H36c-12.7,0-23-10.4-23-23V40c0-12.7,10.4-23,23-23h146.6c33.2,0,65.3,12.1,90.3,34 c23.7,20.8,53.3,47,74.2,66c14.9,13.5,14.9,36.9,0.1,50.4c-20.9,19.1-50.1,45.8-73.5,67.3C248.1,258.1,214.9,271,180.4,271z"/></g><g><path fill="#FFFFFF" d="M115.1,66.5l46.7,150h-28l-11.3-38.1H68.5l-11.3,38.1h-27l46.4-150H115.1z M75.1,155.9h40.7l-9.4-32.1 c-4.1-14.6-8.6-29.5-10.3-38.9h-0.9c-1.9,9-6.4,25-10.3,38.3L75.1,155.9z"/><path fill="#FFFFFF" d="M193.7,195.1c6-0.6,24.4-1.1,30.8-1.1h31v22.5h-89.2l-4.5-22.5c16.3-15.4,44.5-45.8,51.8-55.9 c8.3-10.9,12.2-19.7,12.2-29.1c0-13.1-7.3-19.5-17.5-19.5c-11.8,0-17.1,9.6-18,20.3l-26.8-5.1c2.8-20.1,17.5-37.9,46.2-37.9 c27,0,43.4,15.6,43.4,38.7c0,16.3-5.8,30.8-19.3,47.1c-3.9,4.5-15,17.1-20.5,22.7c-3.9,3.6-15.2,14.8-19.7,18.8V195.1z"/></g></svg>