<?xml version="1.0" encoding="utf-8"?><svg version="1.1" xmlns="http://www.w3.org/2000/svg" xmlns:xlink="http://www.w3.org/1999/xlink" x="0px" y="0px" viewBox="0 0 400 288" xml:space="preserve"><g><path fill="#1F8F85" d="M180.4,271H36c-12.7,0-23-10.4-23-23V40c0-12.7,10.4-23,23-23h146.6c33.2,0,65.3,12.1,90.3,34 c23.7,20.8,53.3,47,74.2,66c14.9,13.5,14.9,36.9,0.1,50.4c-20.9,19.1-50.1,45.8-73.5,67.3C248.1,258.1,214.9,271,180.4,271z"/></g><g><path fill="#FFFFFF" d="M116.3,66.4l46.7,150h-28l-11.3-38.1H69.6l-11.3,38.1h-27l46.4-150H116.3z M76.2,155.9h40.7l-9.4-32.1 c-4.1-14.6-8.6-29.5-10.3-38.9h-0.9c-1.9,9-6.4,25-10.3,38.3L76.2,155.9z"/><path fill="#FFFFFF" d="M229.5,140.5c13.7,1.3,27.2,9.6,27.2,31.9c0,30-19.7,46-51.4,46c-25,0-40.4-13.3-46.4-27.6l24.4-12 c3.6,7.5,11.1,17.5,25.3,17.5c15.4,0,22-8.1,22-22.7c0-14.1-9-20.5-28.2-20.5h-9.8v-22h9.6c16.5,0,23.3-7.1,23.3-22.7 c0-12-5.8-19.5-18.4-19.5c-11.6,0-17.5,7.5-18.6,18l-25.5-3c1.7-20.5,17.3-37.2,44.3-37.2c28.7,0,44.5,13.3,44.5,39.6 c0,18.2-10.1,29.5-22.3,33.4V140.5z"/></g></svg>