<?xml version="1.0" encoding="utf-8"?><svg version="1.1" xmlns="http://www.w3.org/2000/svg" xmlns:xlink="http://www.w3.org/1999/xlink" x="0px" y="0px" viewBox="0 0 400 288" xml:space="preserve"><g><path fill="#ABDC7D" d="M180.4,271H36c-12.7,0-23-10.4-23-23V40c0-12.7,10.4-23,23-23h146.6c33.2,0,65.3,12.1,90.3,34 c23.7,20.8,53.3,47,74.2,66c14.9,13.5,14.9,36.9,0.1,50.4c-20.9,19.1-50.1,45.8-73.5,67.3C248.1,258.1,214.9,271,180.4,271z"/></g><g><path fill="#FFFFFF" d="M204.1,171.6c0,21.4-11.8,44.7-56.3,44.7H99.7v-150h50.9c25.3,0,46,9.2,46,38.7c0,17.3-9.6,28.7-21.2,32.5v0.9 C190.2,140.1,204.1,150.4,204.1,171.6z M147,88.7h-20.8V129h20.1c17.1,0,24.4-8.1,24.4-20.5C170.8,95.8,163.3,88.7,147,88.7z M177,172.6c0-16-12.4-21.2-26.8-21.2h-24v42.4h25.5C170.1,193.8,177,185,177,172.6z"/></g></svg>