<?xml version="1.0" encoding="utf-8"?><svg version="1.1" xmlns="http://www.w3.org/2000/svg" xmlns:xlink="http://www.w3.org/1999/xlink" x="0px" y="0px" viewBox="0 0 400 288" xml:space="preserve"><g><path fill="#FDFA02" d="M180.4,271H36c-12.7,0-23-10.4-23-23V40c0-12.7,10.4-23,23-23h146.6c33.2,0,65.3,12.1,90.3,34 c23.7,20.8,53.3,47,74.2,66c14.9,13.5,14.9,36.9,0.1,50.4c-20.9,19.1-50.1,45.8-73.5,67.3C248.1,258.1,214.9,271,180.4,271z"/></g><g><path fill="#FFFFFF" d="M157.9,66.1c27,0,39.8,11.1,44.1,15.4l-17.3,19.7c-5.4-5.6-13.1-12.2-28.9-12.2c-22.5,0-34.9,16.7-34.9,53.5	c0,34.7,12.4,54.4,37.2,54.4c14.6,0,22.9-6,27.8-11.3l14.8,19c-6.6,7.3-21,15.6-45.2,15.6c-44.3,0-62.1-30.4-62.1-75.8 C93.5,96.5,115.5,66.1,157.9,66.1z"/></g></svg>