<?xml version="1.0" encoding="utf-8"?><svg version="1.1" xmlns="http://www.w3.org/2000/svg" xmlns:xlink="http://www.w3.org/1999/xlink" x="0px" y="0px" viewBox="0 0 400 288" xml:space="preserve"><g><path fill="#FDC801" d="M180.4,271H36c-12.7,0-23-10.4-23-23V40c0-12.7,10.4-23,23-23h146.6c33.2,0,65.3,12.1,90.3,34 c23.7,20.8,53.3,47,74.2,66c14.9,13.5,14.9,36.9,0.1,50.4c-20.9,19.1-50.1,45.8-73.5,67.3C248.1,258.1,214.9,271,180.4,271z"/></g><g><path fill="#FFFFFF" d="M104.6,68h43.9c47.5,0,68.9,23.5,68.9,72.3c0,42.4-16.9,77.7-68.7,77.7h-44.1V68z M131.3,195.6h15.6 c31.5,0,42.8-18.4,42.8-52.6c0-39.4-16.5-52.4-43.2-52.4h-15.2V195.6z"/></g></svg>