<?xml version="1.0" encoding="utf-8"?><svg version="1.1" xmlns="http://www.w3.org/2000/svg" xmlns:xlink="http://www.w3.org/1999/xlink" x="0px" y="0px" viewBox="0 0 400 288" xml:space="preserve"><g><path fill="#EB3C02" d="M180.4,271H36c-12.7,0-23-10.4-23-23V40c0-12.7,10.4-23,23-23h146.6c33.2,0,65.3,12.1,90.3,34 c23.7,20.8,53.3,47,74.2,66c14.9,13.5,14.9,36.9,0.1,50.4c-20.9,19.1-50.1,45.8-73.5,67.3C248.1,258.1,214.9,271,180.4,271z"/></g><g><path fill="#FFFFFF" d="M204.2,81.5l-17.1,19c-6-6-14.6-11.3-28.9-11.3c-20.5,0-40,11.3-40,52c0,40,13.5,56.7,40.2,56.7 c6.4,0,14.6-1.1,18.8-3.4v-53.3H204v65.7c-10.5,7.5-25,13.3-51.1,13.3c-41.1,0-62.1-25.7-62.1-76.2c0-54.1,30.4-78.1,68.7-78.1	C187.1,65.9,199.9,76.8,204.2,81.5z"/></g></svg>
