<?xml version="1.0" encoding="utf-8"?><svg version="1.1" xmlns="http://www.w3.org/2000/svg" xmlns:xlink="http://www.w3.org/1999/xlink" x="0px" y="0px" viewBox="0 0 400 288" xml:space="preserve"><g><path fill="#272C25" class="st0" d="M180.4,271H36c-12.7,0-23-10.4-23-23V40c0-12.7,10.4-23,23-23h146.6c33.2,0,65.3,12.1,90.3,34	c23.7,20.8,53.3,47,74.2,66c14.9,13.5,14.9,36.9,0.1,50.4c-20.9,19.1-50.1,45.8-73.5,67.3C248.1,258.1,214.9,271,180.4,271z"/></g><g><path fill="#FFFFFF" class="st3" d="M61.5,98.6c1.1,10.5,1.5,29.5,1.5,47.8v69.7H37.4V65.3H71l38.3,73.2c5.2,10.1,15.9,31,19.8,41.5h1.1 c-1.1-14.8-1.1-40-1.1-51.2V65.3h25.4v150.9h-32.9l-40-76c-5.2-10.3-14.6-29.9-18.9-41.5H61.5z"/><path fill="#FFFFFF" class="st3" d="M225.3,63.3c27.1,0,40,11.2,44.3,15.5l-17.4,19.8c-5.4-5.6-13.1-12.3-29.1-12.3c-22.6,0-35.1,16.8-35.1,53.8 c0,34.9,12.5,54.7,37.4,54.7c14.6,0,23-6,28-11.4l14.8,19.2c-6.7,7.3-21.1,15.7-45.4,15.7c-44.5,0-62.4-30.6-62.4-76.2	C160.5,93.9,182.7,63.3,225.3,63.3z"/></g></svg>