<?xml version="1.0" encoding="utf-8"?><svg version="1.1" xmlns="http://www.w3.org/2000/svg" xmlns:xlink="http://www.w3.org/1999/xlink" x="0px" y="0px" viewBox="0 0 400 288" xml:space="preserve"><g><path fill="#272C25" d="M180.4,271H36c-12.7,0-23-10.4-23-23V40c0-12.7,10.4-23,23-23h146.6c33.2,0,65.3,12.1,90.3,34 c23.7,20.8,53.3,47,74.2,66c14.9,13.5,14.9,36.9,0.1,50.4c-20.9,19.1-50.1,45.8-73.5,67.3C248.1,258.1,214.9,271,180.4,271z"/></g><g><path fill="#FFFFFF" d="M61.5,98.6c1.1,10.5,1.5,29.5,1.5,47.8v69.7H37.4V65.3H71l38.3,73.2c5.2,10.1,15.9,31,19.8,41.5h1.1 c-1.1-14.8-1.1-40-1.1-51.2V65.3h25.4v150.9h-32.9l-40-76c-5.2-10.3-14.6-29.9-18.9-41.5H61.5z"/><path fill="#FFFFFF" d="M159.9,65.3H204c47.8,0,69.3,23.7,69.3,72.7c0,42.6-17,78.1-69.1,78.1h-44.3V65.3z M186.8,193.5h15.7 c31.6,0,43-18.5,43-52.9c0-39.6-16.6-52.7-43.5-52.7h-15.3V193.5z"/></g></svg>